<?xml version="1.0" standalone="no"?>
<!DOCTYPE svg PUBLIC "-//W3C//DTD SVG 20010904//EN"
 "http://www.w3.org/TR/2001/REC-SVG-20010904/DTD/svg10.dtd">
<svg version="1.0" xmlns="http://www.w3.org/2000/svg"
 width="1500.000000pt" height="1001.000000pt" viewBox="0 0 1500.000000 1001.000000"
 preserveAspectRatio="xMidYMid meet">

<g transform="translate(0.000000,1001.000000) scale(0.100000,-0.100000)"
fill="#000000" stroke="none">
<path d="M14287 5346 c-3 -8 -3 -17 0 -20 9 -9 34 15 27 25 -8 13 -21 11 -27
-5z"/>
<path d="M14394 5345 c3 -8 1 -15 -3 -15 -5 0 -12 6 -14 13 -4 9 -6 9 -6 -1
-1 -7 -5 -11 -10 -8 -5 4 -8 -5 -7 -18 2 -14 -2 -27 -9 -30 -8 -3 -11 2 -8 15
7 25 -17 25 -45 -1 -27 -26 -28 -34 -2 -20 17 9 20 8 20 -10 0 -25 16 -25 58
0 17 11 32 17 32 14 0 -9 -33 -39 -44 -40 -6 0 -17 -2 -23 -2 -7 -1 -13 -14
-12 -29 0 -25 1 -26 9 -8 5 11 9 16 9 10 1 -5 6 -3 11 5 6 10 10 11 10 3 0 -7
5 -13 10 -13 6 0 10 7 10 15 0 8 5 15 11 15 5 0 7 5 3 12 -5 7 -2 9 8 6 8 -4
21 -2 29 4 11 8 11 9 -2 5 -9 -3 -16 0 -16 7 0 8 9 11 24 8 17 -3 23 0 23 14
0 15 2 16 9 5 5 -7 11 -9 14 -4 3 5 -3 15 -15 22 -11 7 -17 8 -14 3 3 -6 -1
-13 -10 -16 -27 -10 -44 -7 -44 10 0 8 5 12 10 9 6 -3 10 -1 10 4 0 6 -5 11
-11 11 -5 0 -7 5 -4 10 3 6 1 10 -5 10 -7 0 -10 -7 -6 -15z"/>
<path d="M14208 5310 c-14 -25 -15 -30 -3 -30 8 0 14 5 13 11 -2 6 2 13 9 16
6 2 13 -4 15 -14 3 -13 6 -10 10 10 4 21 2 27 -8 23 -7 -3 -14 -1 -16 4 -2 5
-11 -4 -20 -20z"/>
<path d="M14956 5314 c-20 -19 -20 -25 -2 -18 8 3 17 12 20 20 7 18 1 18 -18
-2z"/>
<path d="M14787 5280 c-12 -32 -13 -45 -4 -66 11 -23 16 -25 55 -20 32 4 42 2
42 -8 0 -8 7 -17 16 -20 23 -9 34 -7 34 4 0 6 -7 10 -15 10 -18 0 -20 16 -4
26 8 4 7 9 -2 15 -11 7 -9 9 6 9 11 0 27 5 35 11 13 9 13 10 0 8 -8 -1 -28 4
-43 11 -24 12 -30 12 -37 0 -5 -8 -3 -19 6 -27 22 -23 16 -37 -8 -20 -13 8
-22 22 -22 31 1 9 -2 16 -7 16 -5 0 -10 -12 -10 -27 l-1 -28 -8 30 c-7 28 -8
28 -9 5 -1 -19 -3 -22 -10 -10 -6 8 -7 18 -4 23 7 11 14 67 9 67 -1 0 -10 -18
-19 -40z m113 -24 c0 -3 -4 -8 -10 -11 -5 -3 -10 -1 -10 4 0 6 5 11 10 11 6 0
10 -2 10 -4z"/>
<path d="M14587 5294 c4 -10 0 -12 -13 -8 -11 4 -16 4 -12 -1 4 -4 18 -9 30
-10 13 -1 26 -3 31 -4 4 0 7 -11 6 -23 0 -22 -1 -22 -9 -3 -5 11 -9 15 -9 8
-1 -6 -4 -19 -8 -29 -5 -14 -3 -16 13 -10 15 6 17 5 7 -5 -19 -19 -16 -34 4
-18 15 12 16 12 11 -7 -4 -17 -1 -20 24 -16 26 4 27 6 11 17 -15 11 -15 13 8
21 13 4 28 7 33 6 14 -4 36 20 36 40 0 10 4 17 9 14 10 -7 23 19 14 28 -4 3
-21 6 -40 6 -36 0 -44 -18 -18 -40 16 -13 20 -30 7 -30 -4 0 -13 14 -21 30
-10 24 -16 28 -26 20 -10 -8 -14 -7 -18 2 -4 8 -6 9 -6 1 -1 -12 -41 -6 -41 7
0 4 -7 10 -14 13 -10 4 -13 1 -9 -9z m73 -44 c0 -5 -4 -10 -10 -10 -5 0 -10 5
-10 10 0 6 5 10 10 10 6 0 10 -4 10 -10z m40 -20 c0 -5 -4 -10 -10 -10 -5 0
-10 5 -10 10 0 6 5 10 10 10 6 0 10 -4 10 -10z"/>
<path d="M14822 5288 c3 -7 13 -15 23 -17 17 -3 17 -2 3 13 -20 19 -31 21 -26
4z"/>
<path d="M14140 5283 c0 -5 4 -14 9 -21 7 -11 9 -11 14 1 3 8 3 18 0 21 -9 8
-23 7 -23 -1z"/>
<path d="M14175 5260 c-3 -5 -1 -10 4 -10 6 0 11 5 11 10 0 6 -2 10 -4 10 -3
0 -8 -4 -11 -10z"/>
<path d="M14285 5251 c-3 -5 -1 -12 5 -16 5 -3 10 1 10 9 0 18 -6 21 -15 7z"/>
<path d="M14504 5243 c15 -4 16 -7 5 -14 -12 -7 -12 -10 0 -21 10 -10 12 -10
7 0 -10 18 5 15 19 -4 11 -15 12 -15 12 0 0 9 -4 16 -9 16 -5 0 -7 4 -4 9 6 9
-17 22 -37 20 -7 -1 -3 -4 7 -6z"/>
<path d="M14196 5225 c6 -15 -11 -22 -19 -7 -2 4 -3 2 -1 -4 1 -6 -3 -17 -9
-24 -7 -6 2 -4 19 6 28 16 37 44 13 44 -4 0 -6 -7 -3 -15z"/>
<path d="M14951 5217 c-25 -13 -30 -32 -8 -32 6 0 11 6 9 14 -2 10 4 12 24 7
24 -6 26 -5 15 8 -8 9 -14 16 -15 16 0 0 -12 -6 -25 -13z"/>
<path d="M14223 5188 c-8 -9 -7 -17 3 -26 12 -11 15 -10 20 3 9 22 -10 40 -23
23z"/>
<path d="M14700 5186 c0 -10 8 -16 22 -16 12 0 19 1 17 3 -2 1 -12 9 -21 16
-15 12 -18 11 -18 -3z"/>
<path d="M14760 5179 c0 -5 5 -7 10 -4 6 3 10 8 10 11 0 2 -4 4 -10 4 -5 0
-10 -5 -10 -11z"/>
<path d="M14987 5174 c-3 -3 -3 -12 0 -20 3 -10 0 -12 -10 -9 -9 4 -16 -1 -20
-14 -4 -17 -2 -18 19 -9 15 7 24 20 24 35 0 24 -2 27 -13 17z"/>
<path d="M14111 5154 c0 -11 3 -14 6 -6 3 7 2 16 -1 19 -3 4 -6 -2 -5 -13z"/>
<path d="M14460 5160 c0 -5 5 -10 11 -10 5 0 7 5 4 10 -3 6 -8 10 -11 10 -2 0
-4 -4 -4 -10z"/>
<path d="M14780 5166 c0 -9 30 -14 35 -6 4 6 -3 10 -14 10 -12 0 -21 -2 -21
-4z"/>
<path d="M14712 5143 c9 -2 15 -10 12 -16 -5 -15 33 -40 41 -28 3 5 -4 12 -14
16 -12 4 -18 12 -14 21 4 10 -2 14 -18 13 -16 -1 -19 -3 -7 -6z"/>
<path d="M14761 5134 c0 -11 3 -14 6 -6 3 7 2 16 -1 19 -3 4 -6 -2 -5 -13z"/>
<path d="M14890 5140 c0 -5 5 -10 11 -10 5 0 7 5 4 10 -3 6 -8 10 -11 10 -2 0
-4 -4 -4 -10z"/>
<path d="M14156 5133 c-15 -4 -16 -7 -5 -14 11 -6 11 -11 1 -21 -17 -17 -15
-29 3 -21 9 3 13 8 10 11 -3 3 5 16 17 29 22 23 16 27 -26 16z"/>
<path d="M14461 5124 c0 -11 3 -14 6 -6 3 7 2 16 -1 19 -3 4 -6 -2 -5 -13z"/>
<path d="M14600 5131 c0 -15 33 -22 44 -10 8 9 8 10 -1 5 -7 -4 -13 -2 -13 3
0 6 -7 11 -15 11 -8 0 -15 -4 -15 -9z"/>
<path d="M14080 5115 c7 -9 15 -13 17 -11 7 7 -7 26 -19 26 -6 0 -6 -6 2 -15z"/>
<path d="M14408 5123 c7 -3 16 -2 19 1 4 3 -2 6 -13 5 -11 0 -14 -3 -6 -6z"/>
<path d="M14500 5122 c0 -5 7 -9 15 -9 8 0 15 4 15 9 0 4 -7 8 -15 8 -8 0 -15
-4 -15 -8z"/>
<path d="M14980 5100 c0 -5 5 -10 11 -10 5 0 7 5 4 10 -3 6 -8 10 -11 10 -2 0
-4 -4 -4 -10z"/>
<path d="M14780 5090 c-8 -5 -12 -11 -10 -14 3 -2 14 2 24 10 22 15 10 19 -14
4z"/>
<path d="M14102 5050 c0 -14 2 -19 5 -12 2 6 2 18 0 25 -3 6 -5 1 -5 -13z"/>
<path d="M14670 5058 c0 -9 7 -22 17 -29 15 -13 15 -12 3 11 -17 34 -20 36
-20 18z"/>
<path d="M14412 5042 c-8 -6 -2 -9 18 -9 20 0 26 3 18 9 -7 4 -15 8 -18 8 -3
0 -11 -4 -18 -8z"/>
<path d="M14533 5035 c0 -10 6 -14 14 -10 8 3 17 5 19 5 3 0 2 5 -1 10 -10 16
-32 12 -32 -5z"/>
<path d="M14875 5040 c3 -5 8 -10 11 -10 2 0 4 5 4 10 0 6 -5 10 -11 10 -5 0
-7 -4 -4 -10z"/>
<path d="M13975 5021 c-10 -9 -4 -19 14 -24 13 -3 21 1 24 12 3 11 -2 17 -15
17 -10 0 -21 -2 -23 -5z"/>
<path d="M14440 4999 c-13 -24 -4 -41 10 -19 10 16 13 40 5 40 -2 0 -9 -9 -15
-21z"/>
<path d="M14025 5000 c-3 -5 -1 -10 4 -10 6 0 11 5 11 10 0 6 -2 10 -4 10 -3
0 -8 -4 -11 -10z"/>
<path d="M14895 5000 c-3 -5 -1 -10 4 -10 6 0 11 5 11 10 0 6 -2 10 -4 10 -3
0 -8 -4 -11 -10z"/>
<path d="M14220 4985 c0 -8 4 -15 8 -15 5 0 9 7 9 15 0 8 -4 15 -9 15 -4 0 -8
-7 -8 -15z"/>
<path d="M14870 4991 c0 -6 4 -13 10 -16 6 -3 7 1 4 9 -7 18 -14 21 -14 7z"/>
<path d="M14927 4993 c-4 -3 -7 -11 -7 -17 0 -6 5 -5 12 2 6 6 9 14 7 17 -3 3
-9 2 -12 -2z"/>
<path d="M14378 4973 c7 -3 16 -2 19 1 4 3 -2 6 -13 5 -11 0 -14 -3 -6 -6z"/>
<path d="M14493 4945 c0 -22 2 -30 4 -17 2 12 2 30 0 40 -3 9 -5 -1 -4 -23z"/>
<path d="M14838 4973 c7 -3 16 -2 19 1 4 3 -2 6 -13 5 -11 0 -14 -3 -6 -6z"/>
<path d="M13974 4954 c-10 -8 -14 -13 -8 -10 7 3 15 -1 18 -10 4 -12 2 -15 -9
-10 -8 3 -15 1 -15 -4 0 -6 -5 -10 -11 -10 -5 0 -7 5 -3 12 4 7 3 8 -4 4 -6
-4 -9 -13 -6 -21 4 -9 -2 -18 -12 -22 -11 -5 -20 -13 -21 -20 -3 -12 15 -12
36 1 11 7 13 3 9 -18 -4 -20 1 -32 23 -51 21 -17 28 -31 27 -52 -3 -35 -26
-63 -53 -63 -20 1 -20 1 0 16 20 15 19 16 -5 13 -14 -2 -30 0 -37 4 -6 4 -14
3 -18 -3 -3 -5 -1 -10 4 -10 7 0 7 -7 -1 -20 -21 -32 -28 -23 -23 30 4 47 -5
64 -21 39 -3 -6 0 -15 7 -20 11 -7 11 -9 -3 -9 -24 0 -29 13 -18 49 6 20 5 31
-2 31 -5 0 -7 7 -4 16 5 14 4 15 -8 5 -11 -9 -15 -8 -20 5 -3 9 -4 19 -2 22 2
4 -2 13 -10 20 -12 11 -14 9 -15 -10 0 -13 -2 -33 -3 -46 -2 -16 2 -21 11 -18
7 3 13 -1 13 -9 0 -18 -31 -20 -48 -3 -9 9 -12 8 -12 -4 0 -9 -7 -24 -16 -33
-13 -12 -14 -19 -4 -30 14 -17 34 -9 26 11 -3 7 -1 16 4 19 11 7 32 -58 24
-78 -4 -11 -1 -14 13 -11 14 4 18 -1 19 -26 1 -19 -4 -30 -12 -30 -8 0 -14 7
-14 16 0 11 -5 14 -16 10 -9 -3 -17 -6 -20 -6 -2 0 0 -7 3 -17 4 -11 3 -14 -6
-9 -8 5 -14 0 -18 -13 -6 -25 -29 -22 -27 3 2 13 -1 14 -11 6 -10 -8 -15 -6
-20 9 -5 16 -13 20 -38 17 -18 -2 -31 -9 -29 -15 1 -6 -5 -11 -13 -11 -8 0
-15 -6 -15 -12 0 -10 -2 -10 -8 -1 -4 6 -20 15 -36 19 -23 5 -33 2 -52 -19
-13 -14 -24 -35 -24 -47 0 -11 -7 -20 -15 -20 -8 0 -15 -7 -15 -15 0 -8 4 -15
9 -15 19 0 19 -65 -1 -89 -14 -18 -17 -33 -12 -55 3 -17 3 -28 -1 -24 -10 10
-35 -10 -35 -28 0 -8 6 -13 13 -11 6 1 11 -5 10 -13 -2 -10 7 -16 27 -17 34
-2 34 -2 20 47 l-10 34 30 -36 31 -37 41 15 c48 17 58 17 58 4 0 -5 -7 -10
-15 -10 -20 0 -19 -16 1 -24 24 -9 54 -7 54 4 0 6 4 10 9 10 12 0 31 -56 23
-66 -4 -5 1 -2 11 5 9 7 17 10 17 6 0 -5 9 0 20 10 11 10 21 14 22 9 0 -5 2
-13 3 -19 2 -5 3 -16 4 -22 0 -7 7 -13 15 -13 10 0 13 9 9 34 -5 40 14 58 23
21 5 -20 11 -24 28 -20 16 5 18 4 6 -4 -24 -16 3 -34 56 -37 44 -3 46 -2 41
21 -5 31 38 65 57 45 8 -9 8 -14 -2 -17 -6 -3 -9 -9 -6 -15 4 -6 -1 -8 -15 -3
-26 8 -28 -10 -5 -43 18 -26 60 -31 50 -6 -4 12 -1 14 14 9 13 -4 22 -1 26 9
5 13 9 12 26 -4 11 -10 17 -23 13 -29 -3 -6 -1 -11 4 -11 16 0 13 27 -5 58
-16 27 -16 27 2 6 30 -32 80 -54 95 -40 9 8 10 8 5 -1 -8 -15 35 -47 44 -32 4
5 13 9 21 7 8 -2 15 7 17 21 2 13 7 20 10 14 4 -5 23 -13 42 -16 19 -4 30 -4
24 1 -6 4 -13 15 -17 25 -5 13 -1 17 14 17 12 0 23 8 26 20 5 20 23 28 23 10
0 -5 5 -10 11 -10 6 0 8 7 5 17 -5 13 -1 12 18 -6 l24 -23 4 28 c3 31 33 42
43 16 6 -16 7 -15 16 1 8 13 14 15 29 7 27 -15 34 -12 19 7 -12 15 -12 16 4
10 25 -9 46 2 62 33 12 22 20 27 49 25 19 -1 33 1 31 4 -2 4 3 17 10 30 l13
25 6 -31 c5 -22 12 -30 24 -28 9 1 20 -2 23 -7 9 -14 50 14 44 29 -10 27 7 44
36 38 18 -4 29 -2 29 4 0 6 -17 11 -37 11 -37 1 -37 1 -18 17 13 10 14 14 4
10 -10 -3 -20 5 -29 26 -12 28 -14 29 -27 12 -7 -11 -14 -15 -14 -9 -1 5 -2
14 -4 19 -1 6 -3 15 -4 20 -1 6 -6 3 -11 -5 -9 -13 -12 -12 -25 4 -19 25 -19
37 1 62 14 18 15 18 4 -4 -11 -22 -10 -23 8 -13 11 6 23 16 26 23 4 9 8 10 11
2 3 -7 15 -9 26 -7 17 5 20 2 17 -13 -2 -10 -8 -19 -13 -19 -6 0 -15 -4 -22
-8 -6 -4 -14 -2 -16 3 -3 6 -4 5 -3 -2 2 -7 8 -13 15 -13 7 0 21 -11 32 -25
l21 -25 -7 30 c-4 16 -3 27 1 23 4 -4 13 -3 21 3 9 9 17 8 27 0 14 -12 46 -5
46 10 0 5 9 9 20 9 11 0 23 7 26 15 4 10 13 13 25 10 13 -4 19 -1 19 9 0 9 -5
16 -11 16 -8 0 -8 4 0 14 9 11 9 15 -1 19 -10 4 -10 6 0 6 15 1 16 37 0 47 -7
4 -8 3 -4 -4 4 -7 2 -12 -4 -12 -6 0 -8 -4 -5 -10 4 -6 -6 -7 -25 -4 -20 5
-30 3 -30 -6 0 -7 7 -10 16 -6 8 3 12 2 9 -4 -3 -6 1 -10 9 -10 9 0 16 -4 16
-10 0 -14 -24 -12 -39 3 -10 10 -11 9 -6 -4 8 -20 -14 -37 -25 -19 -5 9 -8 9
-12 -2 -4 -9 -21 -12 -58 -9 l-52 3 23 25 c21 22 22 23 4 17 -11 -4 -23 -12
-26 -17 -9 -13 -42 0 -34 12 3 6 -7 6 -27 1 -32 -10 -51 -28 -42 -42 3 -4 1
-8 -5 -8 -5 0 -13 5 -16 10 -3 6 -1 10 4 10 6 0 11 9 11 19 0 11 8 22 18 24 9
2 3 4 -15 3 -24 -1 -31 -5 -30 -18 1 -9 -2 -17 -8 -17 -5 0 -9 6 -7 14 1 7 -7
20 -19 28 -12 9 -18 20 -14 26 3 6 1 11 -4 11 -6 0 -11 -17 -11 -37 l0 -38
-20 33 c-21 35 -38 45 -20 12 8 -16 8 -20 -2 -18 -9 2 -12 -6 -10 -24 1 -14
-2 -29 -8 -33 -6 -4 -10 6 -10 24 0 29 0 30 -27 15 -45 -23 -56 -19 -38 16 18
34 30 40 20 10 -4 -11 -2 -20 4 -20 14 0 14 33 0 47 -13 13 -2 36 12 27 6 -3
7 4 3 20 -5 22 -2 27 22 37 26 10 27 12 9 18 -26 10 -59 -21 -52 -48 4 -17 0
-21 -19 -21 -13 0 -24 5 -24 10 0 7 -6 7 -19 1 -10 -6 -21 -7 -25 -3 -4 3 -3
-5 3 -20 8 -22 7 -27 -10 -31 -10 -3 -21 -1 -24 4 -3 4 -12 6 -19 3 -11 -4
-33 24 -24 31 2 1 12 7 23 13 11 6 14 12 8 12 -7 0 -13 9 -13 20 0 11 6 20 13
20 6 0 4 5 -6 11 -13 8 -21 6 -33 -5 -8 -9 -21 -16 -27 -16 -8 0 -7 3 2 9 10
7 5 11 -18 16 -17 3 -31 10 -31 15 0 11 49 22 62 14 7 -4 8 -3 4 4 -4 7 -15
12 -24 13 -13 0 -12 3 6 11 12 6 22 20 22 30 0 11 9 22 20 25 11 3 20 10 20
15 0 6 6 5 15 -2 8 -7 12 -17 8 -22 -3 -6 0 -8 8 -6 8 3 13 12 11 19 -2 7 3
18 10 24 13 10 22 35 13 35 -2 0 -13 -10 -24 -22 -18 -18 -22 -19 -38 -7 -11
9 -14 10 -9 2 4 -8 2 -13 -8 -13 -8 0 -17 6 -19 13 -3 6 -6 0 -6 -14 -1 -23
-4 -26 -28 -21 -26 5 -27 4 -14 -12 13 -15 12 -18 -7 -23 -12 -3 -22 -12 -22
-19 0 -8 -8 -14 -17 -14 -15 0 -16 2 -3 10 9 6 10 10 3 10 -6 0 -13 12 -15 26
l-3 26 -24 -21 c-28 -24 -27 -24 -51 -11 -13 7 -21 7 -25 0 -11 -18 -25 -10
-25 15 0 14 -6 25 -13 25 -13 0 -16 44 -4 56 5 6 -34 44 -45 44 -2 0 -13 -7
-24 -16z m46 -64 c0 -5 -4 -10 -10 -10 -5 0 -10 5 -10 10 0 6 5 10 10 10 6 0
10 -4 10 -10z m-20 -72 c0 -5 -7 -8 -15 -8 -15 0 -20 21 -8 33 7 7 23 -11 23
-25z m37 16 c-3 -3 -12 -4 -19 -1 -8 3 -5 6 6 6 11 1 17 -2 13 -5z m133 -68
c0 -17 -2 -17 -20 4 -11 13 -20 20 -20 16 0 -4 -5 -4 -11 0 -8 4 -7 9 2 14 17
11 49 -11 49 -34z m-112 -59 c13 5 14 3 5 -7 -14 -15 -33 -5 -32 18 1 16 2 16
6 0 3 -11 10 -15 21 -11z m165 -7 c-3 -11 -9 -20 -13 -20 -5 0 -6 9 -3 20 3
11 9 20 13 20 5 0 6 -9 3 -20z m57 0 c0 -5 -2 -10 -4 -10 -3 0 -8 5 -11 10 -3
6 -1 10 4 10 6 0 11 -4 11 -10z m-250 -19 c0 -15 -19 -23 -38 -16 -14 5 -14 7
-2 15 19 12 40 13 40 1z m79 -50 c-1 -20 -2 -22 -6 -6 -3 11 -13 25 -22 32
-14 10 -13 11 7 6 16 -4 22 -12 21 -32z m-24 -2 c11 -16 1 -19 -13 -3 -7 8 -8
14 -3 14 5 0 13 -5 16 -11z m-160 -27 c-8 -8 -25 10 -19 20 4 6 9 5 15 -3 4
-7 6 -15 4 -17z m-135 -28 c0 -3 -7 -21 -16 -39 -18 -38 -57 -51 -80 -28 -20
20 -12 39 16 35 15 -1 24 4 27 18 3 13 14 20 29 20 13 0 24 -3 24 -6z m797
-21 c0 -8 -6 -9 -19 -2 -10 5 -18 11 -18 12 0 2 8 3 18 3 10 0 19 -6 19 -13z
m-1109 -28 c-4 -19 -1 -25 11 -23 9 2 15 -3 13 -11 -5 -23 9 -51 26 -52 13 0
14 -2 3 -6 -8 -3 -21 3 -28 13 -13 18 -14 17 -8 -8 6 -24 4 -28 -13 -28 -26 0
-37 16 -17 24 17 6 21 56 5 56 -5 0 -10 14 -10 30 0 17 5 30 11 30 7 0 9 -10
7 -25z m992 15 c0 -5 -7 -10 -16 -10 -8 0 -12 5 -9 10 3 6 10 10 16 10 5 0 9
-4 9 -10z m467 -6 c-3 -3 -12 -4 -19 -1 -8 3 -5 6 6 6 11 1 17 -2 13 -5z
m-261 -31 c-6 -6 -36 9 -36 18 0 5 9 4 20 -3 10 -7 18 -14 16 -15z m-160 -10
c-10 -10 -19 5 -10 18 6 11 8 11 12 0 2 -7 1 -15 -2 -18z m384 23 c0 -2 -7 -7
-16 -10 -8 -3 -12 -2 -9 4 6 10 25 14 25 6z m-1120 -36 c11 -7 8 -8 -13 -6
-15 1 -30 6 -34 9 -10 11 30 8 47 -3z m913 -10 c-6 -24 -26 -21 -31 3 -2 11 3
17 16 17 15 0 19 -5 15 -20z m-1163 -54 c0 -3 -4 -8 -10 -11 -5 -3 -10 -1 -10
4 0 6 5 11 10 11 6 0 10 -2 10 -4z m1267 -2 c-3 -3 -12 -4 -19 -1 -8 3 -5 6 6
6 11 1 17 -2 13 -5z m-87 -29 c0 -8 -6 -15 -14 -15 -8 0 -17 -9 -21 -19 -8
-25 -27 -32 -43 -15 -11 12 -9 14 8 14 11 0 20 7 20 15 0 12 22 28 48 34 1 1
2 -6 2 -14z m-1283 -47 c-3 -8 -6 -5 -6 6 -1 11 2 17 5 13 3 -3 4 -12 1 -19z
m81 -13 c-3 -14 -1 -25 4 -25 5 0 6 -5 2 -11 -10 -17 -22 8 -16 37 2 13 7 24
9 24 3 0 3 -11 1 -25z m1269 18 c-4 -3 1 -12 11 -19 15 -12 14 -13 -10 -12
-19 2 -28 8 -28 20 0 10 7 18 17 18 9 0 13 -3 10 -7z m-1209 -23 c-7 -11 -15
-15 -17 -9 -2 6 3 15 10 20 20 12 21 11 7 -11z m110 -54 c-8 -15 -13 -17 -16
-7 -2 7 1 17 8 21 9 5 9 13 1 27 -5 11 -7 23 -3 27 12 13 21 -47 10 -68z m722
38 c0 -8 -5 -12 -10 -9 -6 4 -8 11 -5 16 9 14 15 11 15 -7z m-653 -46 c-3 -8
-6 -5 -6 6 -1 11 2 17 5 13 3 -3 4 -12 1 -19z m141 -64 c27 -8 29 -24 2 -24
-11 0 -20 4 -20 9 0 5 -8 12 -17 14 -13 3 -14 5 -3 6 8 0 25 -2 38 -5z m402
-18 c0 -3 -4 -8 -10 -11 -5 -3 -10 -1 -10 4 0 6 5 11 10 11 6 0 10 -2 10 -4z"/>
<path d="M14923 4963 c-7 -2 -13 -8 -13 -13 0 -12 33 -5 38 8 4 12 -4 14 -25
5z"/>
<path d="M14227 4946 c-6 -15 16 -46 32 -46 9 0 41 34 41 43 0 4 -4 7 -10 7
-5 0 -10 -7 -10 -16 0 -9 -6 -14 -12 -11 -7 2 -13 10 -13 17 0 19 -21 24 -28
6z"/>
<path d="M14354 4952 c-13 -9 -26 -42 -16 -42 13 1 42 27 42 39 0 13 -10 14
-26 3z"/>
<path d="M14426 4951 c-3 -5 1 -12 10 -15 20 -8 29 -1 19 13 -8 13 -22 14 -29
2z"/>
<path d="M13220 4940 c0 -6 7 -10 15 -10 8 0 15 2 15 4 0 2 -7 6 -15 10 -8 3
-15 1 -15 -4z"/>
<path d="M13846 4942 c-3 -5 1 -9 9 -9 8 0 15 4 15 9 0 4 -4 8 -9 8 -6 0 -12
-4 -15 -8z"/>
<path d="M14820 4929 c0 -5 5 -7 10 -4 6 3 10 8 10 11 0 2 -4 4 -10 4 -5 0
-10 -5 -10 -11z"/>
<path d="M13226 4912 c-2 -4 4 -8 14 -8 10 0 16 4 14 8 -3 4 -9 8 -14 8 -5 0
-11 -4 -14 -8z"/>
<path d="M13858 4913 c7 -3 16 -2 19 1 4 3 -2 6 -13 5 -11 0 -14 -3 -6 -6z"/>
<path d="M14045 4910 c3 -5 8 -10 11 -10 2 0 4 5 4 10 0 6 -5 10 -11 10 -5 0
-7 -4 -4 -10z"/>
<path d="M14776 4907 c3 -10 9 -15 12 -12 3 3 0 11 -7 18 -10 9 -11 8 -5 -6z"/>
<path d="M14181 4884 c0 -11 3 -14 6 -6 3 7 2 16 -1 19 -3 4 -6 -2 -5 -13z"/>
<path d="M14070 4860 c0 -5 5 -10 10 -10 6 0 10 5 10 10 0 6 -4 10 -10 10 -5
0 -10 -4 -10 -10z"/>
<path d="M14517 4835 c3 -8 9 -12 14 -9 12 7 11 11 -5 17 -10 4 -13 1 -9 -8z"/>
<path d="M13741 4814 c0 -11 3 -14 6 -6 3 7 2 16 -1 19 -3 4 -6 -2 -5 -13z"/>
<path d="M14395 4820 c3 -5 8 -10 11 -10 2 0 4 5 4 10 0 6 -5 10 -11 10 -5 0
-7 -4 -4 -10z"/>
<path d="M13220 4800 c0 -5 5 -10 10 -10 6 0 10 5 10 10 0 6 -4 10 -10 10 -5
0 -10 -4 -10 -10z"/>
<path d="M14693 4800 c2 -8 12 -16 23 -17 13 -2 15 -1 4 4 -8 3 -19 11 -23 17
-6 7 -7 6 -4 -4z"/>
<path d="M14337 4780 c-22 -26 -21 -30 4 -30 16 0 19 4 15 17 -4 9 -1 20 6 25
7 4 8 8 3 8 -6 0 -18 -9 -28 -20z"/>
<path d="M13081 4774 c0 -11 3 -14 6 -6 3 7 2 16 -1 19 -3 4 -6 -2 -5 -13z"/>
<path d="M13247 4784 c-8 -9 -9 -74 -1 -74 3 0 12 6 20 14 10 11 11 15 1 19
-8 3 -6 10 8 23 12 10 16 16 10 12 -6 -4 -16 -3 -21 2 -6 6 -13 7 -17 4z"/>
<path d="M13110 4776 c0 -2 7 -6 15 -10 8 -3 15 -1 15 4 0 6 -7 10 -15 10 -8
0 -15 -2 -15 -4z"/>
<path d="M14570 4770 c0 -5 5 -10 10 -10 6 0 10 5 10 10 0 6 -4 10 -10 10 -5
0 -10 -4 -10 -10z"/>
<path d="M14625 4770 c-3 -6 1 -7 9 -4 18 7 21 14 7 14 -6 0 -13 -4 -16 -10z"/>
<path d="M14450 4753 c0 -13 5 -23 10 -23 13 0 13 11 0 30 -8 12 -10 11 -10
-7z"/>
<path d="M13170 4749 c0 -6 -9 -8 -20 -4 -11 4 -20 2 -20 -4 0 -6 5 -11 10
-11 6 0 10 -11 10 -25 0 -17 -4 -23 -15 -19 -8 4 -12 10 -9 15 3 5 1 17 -5 26
-9 16 -11 14 -21 -14 -7 -18 -16 -33 -21 -33 -5 0 -9 -5 -9 -12 0 -9 3 -9 12
0 23 23 31 12 8 -13 -19 -20 -21 -27 -11 -39 7 -8 10 -20 6 -26 -3 -5 1 -10 9
-10 9 0 16 -5 16 -11 0 -15 52 -2 66 17 7 9 18 12 29 7 14 -5 17 -3 12 10 -3
9 -2 19 3 22 4 3 11 -1 13 -7 3 -7 6 1 6 19 1 24 -3 30 -16 28 -50 -10 -103
-12 -103 -4 0 5 23 9 50 9 45 0 67 13 39 22 -7 2 -12 18 -13 36 0 18 -6 32
-13 32 -7 0 -13 -5 -13 -11z m30 -109 c0 -5 -16 -10 -36 -10 -21 0 -33 4 -29
10 3 6 19 10 36 10 16 0 29 -4 29 -10z m-70 -24 c0 -11 -19 -15 -25 -6 -3 5 1
10 9 10 9 0 16 -2 16 -4z m73 -3 c3 -5 -10 -9 -29 -10 -19 -1 -34 2 -34 6 0 9
58 13 63 4z"/>
<path d="M13301 4743 c-7 -8 -11 -16 -8 -19 2 -2 10 2 17 11 17 20 9 27 -9 8z"/>
<path d="M13205 4740 c-3 -5 -1 -10 4 -10 6 0 11 5 11 10 0 6 -2 10 -4 10 -3
0 -8 -4 -11 -10z"/>
<path d="M14822 4730 c-19 -30 -14 -36 8 -10 22 25 24 30 12 30 -4 0 -13 -9
-20 -20z"/>
<path d="M13005 4708 c-22 -12 -34 -23 -28 -25 7 -3 20 3 29 11 8 9 22 16 30
16 8 0 14 5 14 10 0 12 3 13 -45 -12z"/>
<path d="M13659 4720 c-1 -8 -1 -19 0 -23 4 -21 -21 -48 -40 -42 -12 4 -19 2
-19 -6 0 -7 3 -9 7 -6 3 4 12 2 20 -4 21 -18 56 18 48 51 -4 21 -3 22 5 8 6
-10 10 -24 8 -32 -2 -8 2 -15 7 -15 16 0 5 42 -16 64 -15 15 -19 16 -20 5z"/>
<path d="M14363 4723 c-13 -2 -23 -9 -23 -14 0 -14 26 -11 40 6 7 8 11 14 9
14 -2 -1 -14 -4 -26 -6z"/>
<path d="M14720 4708 c0 -23 17 -41 30 -33 9 5 11 4 6 -3 -4 -7 -1 -12 8 -12
18 0 10 29 -13 47 -21 16 -31 16 -31 1z"/>
<path d="M14787 4714 c-4 -4 -7 -14 -7 -23 0 -11 3 -12 11 -4 6 6 10 16 7 23
-2 6 -7 8 -11 4z"/>
<path d="M14945 4710 c-3 -5 -1 -10 4 -10 6 0 11 5 11 10 0 6 -2 10 -4 10 -3
0 -8 -4 -11 -10z"/>
<path d="M12330 4700 c-9 -6 -10 -10 -3 -10 6 0 15 5 18 10 8 12 4 12 -15 0z"/>
<path d="M14505 4701 c-3 -5 -1 -12 5 -16 5 -3 10 1 10 9 0 18 -6 21 -15 7z"/>
<path d="M12367 4694 c-13 -13 7 -34 34 -34 22 0 27 4 22 16 -4 12 -8 13 -13
3 -5 -6 -15 -9 -25 -6 -9 4 -13 11 -10 17 7 11 2 14 -8 4z"/>
<path d="M14600 4690 c-13 -8 -12 -10 3 -10 9 0 17 5 17 10 0 12 -1 12 -20 0z"/>
<path d="M12928 4673 c7 -3 16 -2 19 1 4 3 -2 6 -13 5 -11 0 -14 -3 -6 -6z"/>
<path d="M13502 4668 c-14 -14 -16 -28 -3 -28 5 0 11 9 14 20 6 23 5 24 -11 8z"/>
<path d="M14565 4670 c3 -5 11 -10 16 -10 6 0 7 5 4 10 -3 6 -11 10 -16 10 -6
0 -7 -4 -4 -10z"/>
<path d="M14635 4670 c-3 -6 1 -7 9 -4 18 7 21 14 7 14 -6 0 -13 -4 -16 -10z"/>
<path d="M12540 4644 c0 -8 5 -12 10 -9 6 4 8 11 5 16 -9 14 -15 11 -15 -7z"/>
<path d="M12585 4651 c-3 -5 -1 -12 5 -16 5 -3 10 1 10 9 0 18 -6 21 -15 7z"/>
<path d="M12885 4651 c-8 -8 6 -21 24 -21 10 0 18 6 18 13 0 12 -32 18 -42 8z"/>
<path d="M14808 4653 c6 -2 12 -12 12 -21 0 -12 3 -13 11 -5 14 14 3 33 -19
32 -11 0 -12 -3 -4 -6z"/>
<path d="M14930 4650 c-20 -12 -5 -24 16 -12 9 5 12 12 7 15 -5 3 -15 2 -23
-3z"/>
<path d="M12400 4639 c0 -5 5 -7 10 -4 6 3 10 8 10 11 0 2 -4 4 -10 4 -5 0
-10 -5 -10 -11z"/>
<path d="M13008 4630 c-14 -16 -14 -19 -2 -24 9 -3 12 -10 9 -16 -3 -5 -1 -10
4 -10 6 0 11 16 11 35 0 40 1 39 -22 15z"/>
<path d="M14748 4639 c-7 -4 -10 -10 -7 -13 7 -7 49 5 49 13 0 10 -26 10 -42
0z"/>
<path d="M12655 4620 c21 -24 26 -25 19 -6 -3 8 -13 17 -22 21 -13 5 -13 2 3
-15z"/>
<path d="M12237 4619 c7 -7 15 -10 18 -7 3 3 -2 9 -12 12 -14 6 -15 5 -6 -5z"/>
<path d="M12508 4613 c6 -2 18 -2 25 0 6 3 1 5 -13 5 -14 0 -19 -2 -12 -5z"/>
<path d="M12787 4590 c15 -31 30 -42 19 -15 -3 8 -1 15 4 15 6 0 10 8 9 18 0
10 -3 12 -6 5 -3 -9 -10 -10 -23 -3 -17 9 -18 8 -3 -20z"/>
<path d="M12930 4616 c0 -2 7 -6 15 -10 8 -3 15 -1 15 4 0 6 -7 10 -15 10 -8
0 -15 -2 -15 -4z"/>
<path d="M13044 4600 c0 -11 6 -20 13 -20 15 0 15 2 7 24 -9 22 -20 20 -20 -4z"/>
<path d="M13668 4613 c7 -3 16 -2 19 1 4 3 -2 6 -13 5 -11 0 -14 -3 -6 -6z"/>
<path d="M14837 4613 c-16 -15 -7 -35 13 -30 11 3 18 2 16 -2 -3 -4 -1 -13 5
-21 6 -11 9 -8 9 13 0 15 -5 27 -11 27 -5 0 -7 5 -4 10 7 11 -18 14 -28 3z"/>
<path d="M12470 4585 c0 -8 4 -15 10 -15 5 0 7 7 4 15 -4 8 -8 15 -10 15 -2 0
-4 -7 -4 -15z"/>
<path d="M12645 4591 c-3 -5 -1 -12 5 -16 5 -3 10 1 10 9 0 18 -6 21 -15 7z"/>
<path d="M12900 4580 c-8 -5 -11 -10 -6 -10 5 0 3 -6 -3 -14 -9 -10 -8 -15 4
-20 8 -3 15 -15 15 -26 0 -25 -17 -27 -23 -2 -4 13 -5 12 -6 -5 0 -12 3 -23 9
-25 5 -1 11 -15 12 -29 3 -33 27 -29 51 9 9 15 17 21 17 14 0 -17 26 -43 34
-35 3 3 -2 12 -11 18 -15 11 -15 15 -4 29 16 19 6 35 -11 18 -7 -7 -17 -12
-22 -12 -6 0 -5 5 2 12 15 15 16 32 2 23 -6 -4 -10 7 -10 24 0 17 -4 31 -9 31
-6 0 -8 -19 -5 -44 3 -24 2 -46 -3 -49 -5 -3 -10 6 -11 21 -1 15 -7 29 -12 30
-6 2 -10 8 -10 13 0 4 8 6 18 3 13 -5 14 -4 3 4 -7 5 -10 15 -7 21 9 13 6 14
-14 1z"/>
<path d="M12543 4558 c-7 -8 -8 -19 -3 -27 9 -16 3 -41 -11 -41 -5 0 -9 9 -9
20 0 41 -28 19 -34 -27 -2 -10 -13 -19 -25 -21 -14 -2 -21 -9 -17 -17 3 -9 -3
-15 -16 -17 -21 -3 -21 -4 -3 -18 15 -12 17 -12 10 -1 -6 11 -3 13 13 9 12 -4
25 -2 28 3 3 5 0 9 -6 9 -6 0 -8 5 -5 10 4 6 12 4 22 -5 9 -10 22 -13 32 -9 9
4 24 7 33 8 13 0 14 4 6 13 -8 10 -5 13 15 13 20 0 25 4 20 16 -4 10 1 22 12
30 23 17 12 44 -19 44 -13 0 -26 5 -28 11 -2 7 -8 6 -15 -3z"/>
<path d="M13070 4560 c0 -4 11 -11 25 -14 14 -4 25 -13 25 -21 0 -20 -20 -19
-36 3 -13 15 -13 14 -5 -8 4 -14 6 -32 3 -40 -3 -12 -2 -12 8 -3 7 6 18 9 26
6 8 -3 16 5 20 21 3 14 10 26 15 26 5 0 8 -4 7 -9 -2 -5 1 -8 6 -7 5 0 10 11
11 24 1 23 -11 30 -17 10 -3 -9 -15 -8 -46 4 -23 9 -42 13 -42 8z"/>
<path d="M13317 4563 c-4 -3 -7 -14 -7 -24 0 -13 5 -17 17 -12 10 4 12 8 6 10
-7 3 -9 11 -6 19 5 15 1 18 -10 7z"/>
<path d="M12626 4546 c3 -9 11 -16 16 -16 13 0 5 23 -10 28 -7 2 -10 -2 -6
-12z"/>
<path d="M12745 4550 c-3 -5 -2 -10 4 -10 5 0 13 5 16 10 3 6 2 10 -4 10 -5 0
-13 -4 -16 -10z"/>
<path d="M12802 4521 c-10 -9 -22 -25 -26 -36 -6 -16 -9 -17 -16 -5 -7 10 -10
11 -10 2 0 -7 9 -20 19 -29 11 -9 18 -20 16 -23 -2 -4 8 -6 23 -5 41 3 44 4
37 15 -3 6 3 10 14 10 11 0 23 5 26 10 4 6 3 10 -2 9 -4 -1 -17 -1 -28 0 -15
1 -17 3 -6 10 17 11 7 58 -13 58 -8 0 -23 -7 -34 -16z m17 -46 c-7 -7 -13 -5
-19 5 -15 24 -11 31 10 18 13 -9 16 -16 9 -23z m3 -37 c-7 -7 -12 -8 -12 -2 0
14 12 26 19 19 2 -3 -1 -11 -7 -17z"/>
<path d="M13020 4526 c0 -8 -2 -20 -3 -28 -2 -7 -2 -10 0 -6 2 4 11 4 19 1 10
-4 14 2 14 21 0 16 -6 26 -15 26 -8 0 -15 -6 -15 -14z"/>
<path d="M12449 4530 c0 -3 -2 -15 -3 -28 -2 -21 -1 -21 13 -8 12 12 13 18 3
28 -7 7 -12 10 -13 8z"/>
<path d="M13346 4512 c-2 -4 -1 -14 4 -21 10 -17 31 -5 23 14 -6 16 -19 20
-27 7z"/>
<path d="M13247 4459 c-9 -6 -15 -14 -12 -19 3 -4 -4 -6 -15 -3 -11 3 -20 0
-20 -6 0 -6 -8 -11 -18 -11 -10 0 -23 -5 -30 -12 -14 -14 -17 -42 -4 -34 5 3
14 -5 20 -17 13 -24 13 -69 1 -61 -4 2 -12 -3 -17 -12 -6 -11 -16 -15 -28 -11
-18 7 -18 6 -2 -6 10 -8 16 -16 13 -19 -3 -2 1 -5 9 -5 7 0 22 13 32 29 10 16
29 31 41 34 11 3 23 15 26 26 3 11 10 17 16 13 6 -3 8 -11 5 -17 -4 -6 -1 -9
6 -6 20 6 21 38 2 39 -10 1 -20 1 -24 0 -8 -1 1 29 14 46 5 6 8 23 6 37 -2 21
-6 23 -21 15z"/>
<path d="M14840 4460 c0 -5 5 -10 10 -10 6 0 10 5 10 10 0 6 -4 10 -10 10 -5
0 -10 -4 -10 -10z"/>
<path d="M12630 4449 c0 -5 5 -7 10 -4 6 3 10 8 10 11 0 2 -4 4 -10 4 -5 0
-10 -5 -10 -11z"/>
<path d="M13364 4448 c3 -7 9 -21 12 -30 6 -16 24 -26 24 -14 0 17 -22 56 -31
56 -6 0 -8 -6 -5 -12z"/>
<path d="M13294 4439 c-5 -9 -2 -10 10 -6 13 5 15 3 7 -11 -5 -9 -7 -29 -4
-44 4 -23 7 -25 19 -14 7 8 19 17 26 20 9 4 10 8 2 11 -7 3 -10 15 -7 25 3 11
1 20 -5 20 -6 0 -17 3 -25 6 -8 3 -18 0 -23 -7z"/>
<path d="M14970 4440 c0 -5 5 -10 11 -10 5 0 7 5 4 10 -3 6 -8 10 -11 10 -2 0
-4 -4 -4 -10z"/>
<path d="M14828 4423 c7 -3 16 -2 19 1 4 3 -2 6 -13 5 -11 0 -14 -3 -6 -6z"/>
<path d="M14935 4400 c-3 -5 -1 -10 4 -10 6 0 11 5 11 10 0 6 -2 10 -4 10 -3
0 -8 -4 -11 -10z"/>
<path d="M14975 4400 c3 -5 11 -10 16 -10 6 0 7 5 4 10 -3 6 -11 10 -16 10 -6
0 -7 -4 -4 -10z"/>
<path d="M13270 4380 c0 -5 4 -10 9 -10 6 0 13 5 16 10 3 6 -1 10 -9 10 -9 0
-16 -4 -16 -10z"/>
<path d="M13100 4361 c0 -5 6 -11 13 -14 9 -3 9 -7 -2 -20 -7 -9 -17 -14 -22
-11 -5 3 -9 1 -9 -4 0 -13 44 -24 64 -16 13 5 14 9 5 20 -6 8 -8 14 -3 14 4 0
-2 9 -14 20 -23 22 -32 25 -32 11z"/>
<path d="M14964 4306 c-3 -9 -14 -16 -23 -16 -14 -1 -14 -2 2 -11 15 -9 16
-13 5 -27 -11 -14 -10 -15 5 -9 10 4 25 7 33 7 11 0 14 9 12 32 -3 34 -24 49
-34 24z"/>
<path d="M14660 4286 c0 -2 7 -7 16 -10 8 -3 12 -2 9 4 -6 10 -25 14 -25 6z"/>
<path d="M13326 4272 c-3 -6 1 -13 10 -16 23 -9 28 -2 10 13 -8 7 -17 8 -20 3z"/>
<path d="M14887 4234 c-10 -13 -13 -24 -7 -24 5 0 10 5 10 11 0 5 4 8 9 5 5
-3 11 1 15 9 9 25 -8 24 -27 -1z"/>
<path d="M13430 4219 c0 -5 5 -7 10 -4 6 3 10 8 10 11 0 2 -4 4 -10 4 -5 0
-10 -5 -10 -11z"/>
<path d="M14926 4221 c-12 -18 14 -32 36 -20 10 6 16 14 12 20 -4 7 -10 6 -19
-1 -10 -8 -14 -8 -17 2 -3 9 -6 9 -12 -1z"/>
<path d="M13586 4205 c4 -8 15 -15 26 -15 16 0 19 -5 15 -21 -7 -28 9 -11 17
17 5 17 1 23 -16 28 -37 9 -48 7 -42 -9z"/>
<path d="M13510 4200 c10 -7 11 -10 3 -10 -7 0 -13 -9 -13 -19 0 -11 -3 -21
-8 -23 -4 -1 5 -16 20 -31 19 -19 28 -23 28 -13 0 8 -4 18 -10 21 -5 3 -10 17
-10 30 0 13 5 27 10 30 17 10 11 21 -12 22 -18 2 -20 0 -8 -7z"/>
<path d="M13470 4193 c5 -2 8 -9 4 -14 -3 -5 0 -9 6 -9 15 0 7 23 -8 26 -7 1
-8 0 -2 -3z"/>
<path d="M13573 4177 c12 -13 26 -21 30 -19 11 5 -23 42 -39 42 -8 0 -5 -9 9
-23z"/>
<path d="M11786 4163 c-8 -8 -13 -9 -40 -12 -10 -1 -14 -11 -12 -28 2 -26 5
-28 46 -26 l45 2 -30 -15 -30 -14 31 6 c46 7 63 -17 40 -57 -9 -16 -16 -29
-14 -30 17 -5 81 -3 84 3 3 4 12 8 20 8 9 0 12 -5 8 -11 -3 -6 -1 -15 7 -19
17 -11 52 7 43 22 -4 7 -3 8 4 4 7 -4 12 -1 13 6 0 7 4 3 9 -9 5 -12 7 -31 5
-43 -3 -16 1 -20 22 -20 26 0 26 -1 7 -14 -16 -12 -17 -17 -6 -28 11 -11 12
-10 7 2 -4 13 2 15 35 12 34 -3 40 -8 39 -26 -1 -16 -2 -17 -6 -3 -3 10 -14
17 -28 17 -16 0 -22 -5 -21 -17 1 -19 -21 -22 -59 -9 -19 7 -19 7 -2 -7 25
-21 96 -30 114 -15 11 8 16 9 21 1 4 -7 27 -14 50 -17 37 -4 44 -2 52 17 7 19
9 19 9 3 1 -15 4 -16 16 -6 8 6 19 9 25 5 5 -3 10 1 10 10 0 9 5 13 10 10 6
-3 4 6 -2 22 -12 26 -13 26 -16 5 -4 -27 -11 -28 -28 -5 -9 13 -9 22 -2 30 14
17 -4 17 -21 1 -11 -11 -11 -9 -2 9 13 26 6 50 -20 64 -11 5 -17 14 -14 19 4
6 -1 7 -11 3 -12 -4 -15 -3 -10 5 4 7 2 12 -3 12 -6 0 -11 -7 -11 -15 0 -8 -7
-15 -16 -15 -9 0 -12 5 -8 12 5 8 2 9 -9 5 -9 -3 -19 -2 -22 3 -4 6 5 10 19
10 14 0 26 4 26 10 0 5 -6 7 -14 4 -8 -3 -23 -1 -34 5 -11 6 -34 13 -52 16
-18 3 -40 15 -49 25 -9 11 -28 21 -43 22 -16 1 -28 6 -28 10 0 4 -7 8 -15 8
-7 0 -18 7 -23 16 -7 13 -13 14 -31 4 -16 -8 -26 -8 -35 -1 -7 6 -16 8 -19 4
-4 -3 -7 -1 -7 5 0 14 -13 16 -24 5z m404 -200 c0 -7 -5 -13 -11 -13 -5 0 -7
5 -3 11 5 8 -1 10 -19 7 -16 -3 -28 0 -31 8 -3 8 5 14 22 16 27 3 42 -7 42
-29z m-146 -5 c-5 -8 -2 -9 10 -5 10 4 15 3 11 -3 -10 -15 -35 -12 -35 5 0 8
5 15 11 15 5 0 7 -5 3 -12z m176 1 c0 -5 5 -7 10 -4 6 3 10 3 10 -2 -1 -12
-30 -48 -30 -37 0 5 -3 19 -6 32 -4 13 -2 22 5 22 6 0 11 -5 11 -11z m-120
-109 c0 -5 -4 -10 -10 -10 -5 0 -10 5 -10 10 0 6 5 10 10 10 6 0 10 -4 10 -10z"/>
<path d="M13560 4159 c0 -5 5 -7 10 -4 6 3 10 8 10 11 0 2 -4 4 -10 4 -5 0
-10 -5 -10 -11z"/>
<path d="M13640 4140 c0 -5 5 -10 10 -10 6 0 10 5 10 10 0 6 -4 10 -10 10 -5
0 -10 -4 -10 -10z"/>
<path d="M13733 4131 c0 -11 5 -17 9 -15 5 3 6 9 3 14 -3 5 14 11 37 13 l43 4
-47 1 c-41 2 -47 -1 -45 -17z"/>
<path d="M11657 4093 c-16 -15 -7 -34 13 -28 11 4 20 2 20 -4 0 -6 -4 -11 -10
-11 -5 0 -10 -4 -10 -10 0 -11 27 -3 55 18 20 14 20 14 -2 9 -13 -3 -23 -1
-23 4 0 5 -8 9 -17 10 -15 0 -15 2 2 9 20 8 20 9 -1 9 -11 1 -24 -2 -27 -6z"/>
<path d="M12320 3830 c-13 -8 -12 -10 3 -10 9 0 17 5 17 10 0 12 -1 12 -20 0z"/>
<path d="M14958 563 c-11 -3 -15 -12 -12 -29 4 -22 2 -24 -19 -19 -18 5 -26 2
-31 -12 -7 -17 -8 -17 -17 0 -14 24 -51 21 -67 -4 -10 -16 -17 -18 -25 -10 -6
6 -26 11 -44 11 -27 0 -36 -5 -45 -27 -16 -38 -15 -38 -35 -22 -9 8 -14 9 -10
3 4 -7 0 -15 -9 -18 -25 -10 -34 -7 -34 10 0 14 -2 15 -17 3 -14 -12 -16 -12
-8 0 6 11 4 13 -9 8 -10 -4 -20 -7 -23 -7 -3 0 0 -7 7 -15 7 -8 10 -25 6 -40
-6 -22 -3 -25 18 -25 22 0 36 -16 36 -41 0 -5 -7 -9 -15 -9 -8 0 -15 -9 -15
-20 0 -11 -5 -20 -11 -20 -7 0 -9 -9 -6 -22 5 -19 2 -23 -16 -24 -12 -1 -32
-4 -44 -7 -13 -3 -25 -2 -28 4 -8 12 -75 12 -75 -1 0 -5 -7 -10 -16 -10 -9 0
-18 -9 -21 -20 -5 -21 -25 -29 -20 -9 1 6 -4 14 -12 17 -10 3 -12 0 -8 -12 4
-9 3 -16 -2 -16 -4 0 -8 -7 -8 -15 0 -8 7 -15 15 -15 7 0 25 -9 39 -20 22 -17
27 -18 39 -5 8 8 22 11 31 8 10 -4 14 -2 9 5 -9 15 5 21 32 11 15 -6 22 -17
22 -35 0 -16 -5 -24 -12 -21 -7 2 -12 12 -12 21 1 9 -2 16 -7 16 -5 0 -9 -6
-9 -13 0 -7 -9 -18 -21 -25 -11 -7 -18 -19 -15 -27 3 -8 -2 -21 -10 -30 -18
-17 -34 -20 -34 -5 0 6 5 10 10 10 10 0 14 53 4 62 -3 3 -14 3 -25 1 -15 -4
-19 -11 -15 -28 4 -17 1 -24 -17 -29 -21 -7 -21 -7 -2 -16 11 -5 16 -9 10 -10
-5 -1 -1 -5 10 -10 11 -4 158 -9 328 -9 l307 -1 0 88 c0 56 -4 92 -12 100 -10
10 -10 17 0 32 8 13 12 71 12 179 0 164 -2 172 -42 164z m-206 -124 c-23 -9
-27 -3 -12 16 11 13 15 13 21 3 5 -8 2 -15 -9 -19z m223 -12 c-14 -11 -17 -22
-12 -45 6 -29 5 -31 -13 -20 -15 10 -23 9 -39 -6 -19 -17 -21 -17 -21 -3 0 18
34 57 49 57 5 0 14 7 21 15 7 8 17 15 23 15 6 0 3 -6 -8 -13z m-271 -38 c-3
-5 -12 -9 -20 -9 -8 0 -14 -4 -14 -10 0 -5 -4 -10 -10 -10 -15 0 -12 38 3 43
18 6 48 -4 41 -14z m64 -6 c-4 -22 -22 -20 -26 1 -2 10 3 16 13 16 10 0 15 -7
13 -17z m112 -23 c0 -5 -4 -10 -9 -10 -6 0 -13 5 -16 10 -3 6 1 10 9 10 9 0
16 -4 16 -10z m-161 -19 l24 -6 -30 -31 c-28 -27 -29 -32 -14 -41 21 -14 8
-28 -16 -18 -10 5 -24 9 -32 11 -8 1 -21 10 -30 20 -15 15 -15 16 2 11 11 -4
17 -1 17 8 0 8 5 15 10 15 6 0 10 9 10 20 0 21 15 24 59 11z m141 -36 c0 -9
-9 -15 -25 -15 -26 0 -34 15 -12 23 23 10 37 7 37 -8z m72 4 c16 -8 18 -13 8
-19 -13 -8 -50 8 -50 22 0 11 18 10 42 -3z m-102 -54 c0 -8 -7 -15 -15 -15
-16 0 -20 12 -8 23 11 12 23 8 23 -8z m80 -25 c9 -16 8 -20 -5 -20 -8 0 -15 9
-15 20 0 11 2 20 5 20 2 0 9 -9 15 -20z m-150 0 c0 -5 -5 -10 -11 -10 -5 0 -7
5 -4 10 3 6 8 10 11 10 2 0 4 -4 4 -10z m92 -32 c-7 -7 -12 -8 -12 -2 0 14 12
26 19 19 2 -3 -1 -11 -7 -17z m-302 2 c0 -5 -2 -10 -4 -10 -3 0 -8 5 -11 10
-3 6 -1 10 4 10 6 0 11 -4 11 -10z m390 -19 c0 -12 -20 -25 -27 -18 -7 7 6 27
18 27 5 0 9 -4 9 -9z m-550 -27 c0 -8 -4 -12 -10 -9 -5 3 -10 10 -10 16 0 5 5
9 10 9 6 0 10 -7 10 -16z m386 -42 c-22 -5 -30 3 -21 18 5 8 11 7 22 -2 15
-12 14 -13 -1 -16z m-101 -12 c3 -5 1 -10 -4 -10 -6 0 -11 5 -11 10 0 6 2 10
4 10 3 0 8 -4 11 -10z m-5 -26 c0 -2 -9 -4 -21 -4 -11 0 -18 4 -14 10 5 8 35
3 35 -6z m-10 -24 c0 -5 -7 -10 -16 -10 -8 0 -12 5 -9 10 3 6 10 10 16 10 5 0
9 -4 9 -10z"/>
<path d="M14481 422 c-13 -2 -26 -12 -28 -23 -3 -10 -13 -19 -22 -19 -10 0
-18 -8 -18 -17 0 -19 27 -44 39 -37 5 3 8 -2 8 -10 0 -9 -5 -16 -11 -16 -5 0
-8 -4 -5 -9 3 -4 -6 -6 -19 -3 -15 2 -25 0 -25 -7 0 -6 10 -11 23 -11 13 0 28
-5 34 -11 14 -14 53 -2 53 16 0 7 -7 15 -15 19 -23 9 -18 28 8 24 18 -2 22 2
22 24 -1 14 3 24 7 22 4 -3 8 5 8 18 0 13 5 29 11 35 11 11 -14 13 -70 5z m3
-68 c5 -13 4 -14 -7 -6 -8 7 -18 8 -22 4 -5 -4 -5 -1 -1 6 10 17 23 15 30 -4z"/>
<path d="M14405 400 c3 -5 8 -10 11 -10 2 0 4 5 4 10 0 6 -5 10 -11 10 -5 0
-7 -4 -4 -10z"/>
<path d="M14357 393 c-4 -3 -7 -11 -7 -17 0 -6 5 -5 12 2 6 6 9 14 7 17 -3 3
-9 2 -12 -2z"/>
<path d="M14357 306 c-10 -8 -14 -17 -8 -20 5 -3 11 -2 13 4 1 5 13 11 25 13
32 5 41 17 12 17 -13 0 -32 -7 -42 -14z"/>
<path d="M14523 285 c0 -8 4 -15 9 -15 4 0 8 7 8 15 0 8 -4 15 -8 15 -5 0 -9
-7 -9 -15z"/>
<path d="M14250 230 c-13 -23 -6 -55 9 -45 6 3 14 -3 20 -12 8 -14 10 -8 8 26
-3 50 -20 63 -37 31z"/>
<path d="M13940 161 c0 -6 4 -13 10 -16 6 -3 7 1 4 9 -7 18 -14 21 -14 7z"/>
<path d="M14190 154 c0 -8 5 -12 10 -9 6 4 8 11 5 16 -9 14 -15 11 -15 -7z"/>
<path d="M14120 131 c0 -5 5 -13 10 -16 6 -3 10 -2 10 4 0 5 -4 13 -10 16 -5
3 -10 2 -10 -4z"/>
<path d="M14263 118 c2 -7 10 -13 18 -13 8 0 20 -4 27 -8 19 -12 14 4 -5 19
-23 17 -46 18 -40 2z"/>
<path d="M14331 104 c0 -11 3 -14 6 -6 3 7 2 16 -1 19 -3 4 -6 -2 -5 -13z"/>
<path d="M14211 109 c-1 -3 6 -20 15 -37 13 -27 18 -30 34 -20 17 11 17 13 2
25 -9 7 -22 13 -29 13 -6 0 -14 6 -16 13 -3 6 -6 9 -6 6z"/>
<path d="M14170 60 c0 -5 5 -10 11 -10 5 0 7 5 4 10 -3 6 -8 10 -11 10 -2 0
-4 -4 -4 -10z"/>
<path d="M14196 44 c-9 -23 -2 -28 13 -10 7 8 8 17 3 20 -6 3 -13 -1 -16 -10z"/>
<path d="M14070 40 c0 -5 5 -10 10 -10 6 0 10 5 10 10 0 6 -4 10 -10 10 -5 0
-10 -4 -10 -10z"/>
<path d="M14287 36 c-9 -24 -9 -28 3 -21 6 3 10 1 10 -4 0 -6 5 -11 10 -11 14
0 13 13 -3 34 -13 18 -14 18 -20 2z"/>
<path d="M14240 15 c-10 -13 -9 -15 9 -15 11 0 21 4 21 9 0 18 -18 21 -30 6z"/>
<path d="M13850 9 c0 -5 5 -7 10 -4 6 3 10 8 10 11 0 2 -4 4 -10 4 -5 0 -10
-5 -10 -11z"/>
</g>
</svg>
